ffmpeg started on 2025-05-12 at 17:40:19
Report written to "D:\Convert\FFMetrics\reports\ssim_report-6.txt"
Log level: 32
Command line:
ffmpeg -hide_banner -nostdin -i "G:\\\xc0\xed\xe8\xec\xe5\\\xce\xed\xe3\xee\xe8\xed\xe3\xe8\\!_35_\xcb\xe5\xf2\xee_2024\\DreamCast\\\xce\xef\xe5\xf0\xe0\xf6\xe8\xff - \xd1\xe5\xec\xe5\xe9\xea\xe0 \xa8\xe4\xe7\xe0\xea\xf3\xf0\xe0\\[DC] Yozakura-san Chi no Daisakusen - 18_Telegram_HEVC.mkv" -i "G:\\\xc0\xed\xe8\xec\xe5\\\xce\xed\xe3\xee\xe8\xed\xe3\xe8\\!_35_\xcb\xe5\xf2\xee_2024\\DreamCast\\\xce\xef\xe5\xf0\xe0\xf6\xe8\xff - \xd1\xe5\xec\xe5\xe9\xea\xe0 \xa8\xe4\xe7\xe0\xea\xf3\xf0\xe0\\[DC] Yozakura-san Chi no Daisakusen - 18_Telegram.mp4" -lavfi "[0:v]settb=AVTB,setpts=PTS-STARTPTS,format=pix_fmts=yuv420p10,fps=24000/1001,scale=1920:1080:flags=bicubic[main];[1:v]settb=AVTB,setpts=PTS-STARTPTS,format=pix_fmts=yuv420p,fps=24000/1001,scale=1920:1080:flags=bicubic[ref];[main][ref]ssim=eof_action=endall:stats_file='D\\:/Convert/FFMetrics/logs/ssim_logfile-6.txt'" -f null -
Input #0, matroska,webm, from 'G:\Аниме\Онгоинги\!_35_Лето_2024\DreamCast\Операция - Семейка Ёдзакура\[DC] Yozakura-san Chi no Daisakusen - 18_Telegram_HEVC.mkv':
  Metadata:
    COMPATIBLE_BRANDS: isomiso2avc1mp41
    MAJOR_BRAND     : isom
    MINOR_VERSION   : 512
    ENCODER         : Lavf61.7.100
  Duration: 00:24:13.65, start: -0.021000, bitrate: 1421 kb/s
  Stream #0:0: Video: hevc (Main 10), yuv420p10le(tv, bt709, progressive), 1920x1080 [SAR 1:1 DAR 16:9], 23.98 fps, 23.98 tbr, 1k tbn (default)
      Metadata:
        HANDLER_NAME    : VideoHandler
        VENDOR_ID       : [0][0][0][0]
        ENCODER         : Lavc61.19.100 libx265
        BPS             : 1223571
        DURATION        : 00:24:13.535708333
        NUMBER_OF_FRAMES: 34850
        NUMBER_OF_BYTES : 222312984
        _STATISTICS_WRITING_APP: mkvpropedit v66.0.0 ('Josie') 64-bit
        _STATISTICS_WRITING_DATE_UTC: 2025-05-08 16:08:00
        _STATISTICS_TAGS: BPS DURATION NUMBER_OF_FRAMES NUMBER_OF_BYTES
  Stream #0:1: Audio: aac (LC), 48000 Hz, stereo, fltp (default)
      Metadata:
        HANDLER_NAME    : SoundHandler
        VENDOR_ID       : [0][0][0][0]
        ENCODER         : Lavc61.19.100 aac
        BPS             : 193442
        DURATION        : 00:24:13.653000000
        NUMBER_OF_FRAMES: 68141
        NUMBER_OF_BYTES : 35149766
        _STATISTICS_WRITING_APP: mkvpropedit v66.0.0 ('Josie') 64-bit
        _STATISTICS_WRITING_DATE_UTC: 2025-05-08 16:08:00
        _STATISTICS_TAGS: BPS DURATION NUMBER_OF_FRAMES NUMBER_OF_BYTES
Input #1, mov,mp4,m4a,3gp,3g2,mj2, from 'G:\Аниме\Онгоинги\!_35_Лето_2024\DreamCast\Операция - Семейка Ёдзакура\[DC] Yozakura-san Chi no Daisakusen - 18_Telegram.mp4':
  Metadata:
    major_brand     : isom
    minor_version   : 512
    compatible_brands: isomiso2avc1mp41
    encoder         : Lavf61.1.100
  Duration: 00:24:13.60, start: 0.000000, bitrate: 3659 kb/s
  Stream #1:0[0x1](und): Video: h264 (High) (avc1 / 0x31637661), yuv420p(tv, bt709, progressive), 1920x1080 [SAR 1:1 DAR 16:9], 3511 kb/s, 23.98 fps, 23.98 tbr, 24k tbn (default)
      Metadata:
        handler_name    : VideoHandler
        vendor_id       : [0][0][0][0]
        encoder         : Lavc61.3.100 h264_qsv
  Stream #1:1[0x2](und): Audio: aac (HE-AACv2) (mp4a / 0x6134706D), 48000 Hz, stereo, fltp, 144 kb/s (default)
      Metadata:
        handler_name    : SoundHandler
        vendor_id       : [0][0][0][0]
Stream mapping:
  Stream #0:0 (hevc) -> settb:default
  Stream #1:0 (h264) -> settb:default
  ssim:default -> Stream #0:0 (wrapped_avframe)
  Stream #0:1 -> #0:1 (aac (native) -> pcm_s16le (native))
Output #0, null, to 'pipe:':
  Metadata:
    COMPATIBLE_BRANDS: isomiso2avc1mp41
    MAJOR_BRAND     : isom
    MINOR_VERSION   : 512
    encoder         : Lavf61.7.100
  Stream #0:0: Video: wrapped_avframe, yuv420p10le(tv, bt709, progressive), 1920x1080 [SAR 1:1 DAR 16:9], q=2-31, 200 kb/s, 23.98 fps, 23.98 tbn
      Metadata:
        encoder         : Lavc61.19.100 wrapped_avframe
  Stream #0:1: Audio: pcm_s16le, 48000 Hz, stereo, s16, 1536 kb/s (default)
      Metadata:
        HANDLER_NAME    : SoundHandler
        VENDOR_ID       : [0][0][0][0]
        _STATISTICS_TAGS: BPS DURATION NUMBER_OF_FRAMES NUMBER_OF_BYTES
        BPS             : 193442
        DURATION        : 00:24:13.653000000
        NUMBER_OF_FRAMES: 68141
        NUMBER_OF_BYTES : 35149766
        _STATISTICS_WRITING_APP: mkvpropedit v66.0.0 ('Josie') 64-bit
        _STATISTICS_WRITING_DATE_UTC: 2025-05-08 16:08:00
        encoder         : Lavc61.19.100 pcm_s16le
frame=  169 fps=0.0 q=-0.0 size=N/A time=00:00:07.04 bitrate=N/A speed=13.5x    frame=  368 fps=357 q=-0.0 size=N/A time=00:00:15.34 bitrate=N/A speed=14.9x    frame=  561 fps=361 q=-0.0 size=N/A time=00:00:23.39 bitrate=N/A speed=15.1x    frame=  731 fps=352 q=-0.0 size=N/A time=00:00:30.48 bitrate=N/A speed=14.7x    frame=  898 fps=347 q=-0.0 size=N/A time=00:00:37.45 bitrate=N/A speed=14.5x    frame= 1124 fps=361 q=-0.0 size=N/A time=00:00:46.88 bitrate=N/A speed=15.1x    frame= 1383 fps=381 q=-0.0 size=N/A time=00:00:57.68 bitrate=N/A speed=15.9x    frame= 1634 fps=394 q=-0.0 size=N/A time=00:01:08.15 bitrate=N/A speed=16.4x    frame= 1809 fps=387 q=-0.0 size=N/A time=00:01:15.45 bitrate=N/A speed=16.2x    frame= 2043 fps=395 q=-0.0 size=N/A time=00:01:25.21 bitrate=N/A speed=16.5x    frame= 2316 fps=406 q=-0.0 size=N/A time=00:01:36.59 bitrate=N/A speed=16.9x    frame= 2573 fps=414 q=-0.0 size=N/A time=00:01:47.31 bitrate=N/A speed=17.3x    frame= 2834 fps=421 q=-0.0 size=N/A time=00:01:58.20 bitrate=N/A speed=17.6x    frame= 3083 fps=426 q=-0.0 size=N/A time=00:02:08.58 bitrate=N/A speed=17.8x    frame= 3358 fps=432 q=-0.0 size=N/A time=00:02:20.05 bitrate=N/A speed=  18x    frame= 3603 fps=435 q=-0.0 size=N/A time=00:02:30.27 bitrate=N/A speed=18.1x    frame= 3844 fps=437 q=-0.0 size=N/A time=00:02:40.32 bitrate=N/A speed=18.2x    frame= 4096 fps=441 q=-0.0 size=N/A time=00:02:50.83 bitrate=N/A speed=18.4x    frame= 4343 fps=442 q=-0.0 size=N/A time=00:03:01.13 bitrate=N/A speed=18.4x    frame= 4600 fps=445 q=-0.0 size=N/A time=00:03:11.85 bitrate=N/A speed=18.6x    frame= 4870 fps=449 q=-0.0 size=N/A time=00:03:23.11 bitrate=N/A speed=18.7x    frame= 5151 fps=453 q=-0.0 size=N/A time=00:03:34.83 bitrate=N/A speed=18.9x    frame= 5379 fps=453 q=-0.0 size=N/A time=00:03:44.34 bitrate=N/A speed=18.9x    frame= 5599 fps=451 q=-0.0 size=N/A time=00:03:53.52 bitrate=N/A speed=18.8x    frame= 5857 fps=454 q=-0.0 size=N/A time=00:04:04.28 bitrate=N/A speed=18.9x    frame= 6117 fps=455 q=-0.0 size=N/A time=00:04:15.12 bitrate=N/A speed=  19x    frame= 6366 fps=457 q=-0.0 size=N/A time=00:04:25.51 bitrate=N/A speed=  19x    frame= 6608 fps=457 q=-0.0 size=N/A time=00:04:35.60 bitrate=N/A speed=19.1x    frame= 6827 fps=456 q=-0.0 size=N/A time=00:04:44.74 bitrate=N/A speed=  19x    frame= 6993 fps=451 q=-0.0 size=N/A time=00:04:51.66 bitrate=N/A speed=18.8x    frame= 7191 fps=449 q=-0.0 size=N/A time=00:04:59.92 bitrate=N/A speed=18.7x    frame= 7381 fps=447 q=-0.0 size=N/A time=00:05:07.84 bitrate=N/A speed=18.6x    frame= 7601 fps=446 q=-0.0 size=N/A time=00:05:17.02 bitrate=N/A speed=18.6x    frame= 7821 fps=445 q=-0.0 size=N/A time=00:05:26.20 bitrate=N/A speed=18.6x    frame= 8003 fps=443 q=-0.0 size=N/A time=00:05:33.79 bitrate=N/A speed=18.5x    frame= 8236 fps=443 q=-0.0 size=N/A time=00:05:43.50 bitrate=N/A speed=18.5x    frame= 8423 fps=441 q=-0.0 size=N/A time=00:05:51.30 bitrate=N/A speed=18.4x    frame= 8665 fps=442 q=-0.0 size=N/A time=00:06:01.40 bitrate=N/A speed=18.4x    frame= 8892 fps=442 q=-0.0 size=N/A time=00:06:10.87 bitrate=N/A speed=18.4x    frame= 9094 fps=440 q=-0.0 size=N/A time=00:06:19.29 bitrate=N/A speed=18.4x    frame= 9270 fps=438 q=-0.0 size=N/A time=00:06:26.63 bitrate=N/A speed=18.3x    frame= 9521 fps=439 q=-0.0 size=N/A time=00:06:37.10 bitrate=N/A speed=18.3x    frame= 9803 fps=442 q=-0.0 size=N/A time=00:06:48.86 bitrate=N/A speed=18.4x    frame=10065 fps=443 q=-0.0 size=N/A time=00:06:59.79 bitrate=N/A speed=18.5x    frame=10340 fps=445 q=-0.0 size=N/A time=00:07:11.26 bitrate=N/A speed=18.6x    frame=10576 fps=446 q=-0.0 size=N/A time=00:07:21.10 bitrate=N/A speed=18.6x    frame=10825 fps=446 q=-0.0 size=N/A time=00:07:31.49 bitrate=N/A speed=18.6x    frame=11036 fps=446 q=-0.0 size=N/A time=00:07:40.29 bitrate=N/A speed=18.6x    frame=11276 fps=446 q=-0.0 size=N/A time=00:07:50.30 bitrate=N/A speed=18.6x    frame=11535 fps=447 q=-0.0 size=N/A time=00:08:01.10 bitrate=N/A speed=18.6x    frame=11813 fps=449 q=-0.0 size=N/A time=00:08:12.70 bitrate=N/A speed=18.7x    frame=12045 fps=449 q=-0.0 size=N/A time=00:08:22.37 bitrate=N/A speed=18.7x    frame=12301 fps=450 q=-0.0 size=N/A time=00:08:33.05 bitrate=N/A speed=18.8x    frame=12562 fps=451 q=-0.0 size=N/A time=00:08:43.94 bitrate=N/A speed=18.8x    frame=12785 fps=450 q=-0.0 size=N/A time=00:08:53.24 bitrate=N/A speed=18.8x    frame=13055 fps=452 q=-0.0 size=N/A time=00:09:04.50 bitrate=N/A speed=18.8x    frame=13261 fps=451 q=-0.0 size=N/A time=00:09:13.09 bitrate=N/A speed=18.8x    frame=13510 fps=451 q=-0.0 size=N/A time=00:09:23.47 bitrate=N/A speed=18.8x    frame=13788 fps=453 q=-0.0 size=N/A time=00:09:35.07 bitrate=N/A speed=18.9x    frame=14008 fps=452 q=-0.0 size=N/A time=00:09:44.25 bitrate=N/A speed=18.9x    frame=14256 fps=453 q=-0.0 size=N/A time=00:09:54.59 bitrate=N/A speed=18.9x    frame=14512 fps=454 q=-0.0 size=N/A time=00:10:05.27 bitrate=N/A speed=18.9x    frame=14756 fps=454 q=-0.0 size=N/A time=00:10:15.44 bitrate=N/A speed=18.9x    frame=14994 fps=454 q=-0.0 size=N/A time=00:10:25.37 bitrate=N/A speed=18.9x    frame=15276 fps=455 q=-0.0 size=N/A time=00:10:37.13 bitrate=N/A speed=  19x    frame=15520 fps=456 q=-0.0 size=N/A time=00:10:47.31 bitrate=N/A speed=  19x    frame=15769 fps=456 q=-0.0 size=N/A time=00:10:57.69 bitrate=N/A speed=  19x    frame=16029 fps=457 q=-0.0 size=N/A time=00:11:08.54 bitrate=N/A speed=19.1x    frame=16264 fps=457 q=-0.0 size=N/A time=00:11:18.34 bitrate=N/A speed=19.1x    frame=16491 fps=457 q=-0.0 size=N/A time=00:11:27.81 bitrate=N/A speed=  19x    frame=16719 fps=456 q=-0.0 size=N/A time=00:11:37.32 bitrate=N/A speed=  19x    frame=16911 fps=455 q=-0.0 size=N/A time=00:11:45.32 bitrate=N/A speed=  19x    frame=17174 fps=456 q=-0.0 size=N/A time=00:11:56.29 bitrate=N/A speed=  19x    frame=17420 fps=456 q=-0.0 size=N/A time=00:12:06.55 bitrate=N/A speed=  19x    frame=17674 fps=457 q=-0.0 size=N/A time=00:12:17.15 bitrate=N/A speed=19.1x    frame=17917 fps=457 q=-0.0 size=N/A time=00:12:27.28 bitrate=N/A speed=19.1x    frame=18156 fps=457 q=-0.0 size=N/A time=00:12:37.25 bitrate=N/A speed=19.1x    frame=18408 fps=457 q=-0.0 size=N/A time=00:12:47.76 bitrate=N/A speed=19.1x    frame=18675 fps=458 q=-0.0 size=N/A time=00:12:58.90 bitrate=N/A speed=19.1x    frame=18937 fps=459 q=-0.0 size=N/A time=00:13:09.83 bitrate=N/A speed=19.1x    frame=19199 fps=460 q=-0.0 size=N/A time=00:13:20.75 bitrate=N/A speed=19.2x    frame=19449 fps=460 q=-0.0 size=N/A time=00:13:31.18 bitrate=N/A speed=19.2x    frame=19706 fps=460 q=-0.0 size=N/A time=00:13:41.90 bitrate=N/A speed=19.2x    frame=19895 fps=459 q=-0.0 size=N/A time=00:13:49.78 bitrate=N/A speed=19.1x    frame=20112 fps=459 q=-0.0 size=N/A time=00:13:58.83 bitrate=N/A speed=19.1x    frame=20328 fps=458 q=-0.0 size=N/A time=00:14:07.84 bitrate=N/A speed=19.1x    frame=20559 fps=458 q=-0.0 size=N/A time=00:14:17.48 bitrate=N/A speed=19.1x    frame=20731 fps=457 q=-0.0 size=N/A time=00:14:24.65 bitrate=N/A speed=  19x    frame=20949 fps=456 q=-0.0 size=N/A time=00:14:33.74 bitrate=N/A speed=  19x    frame=21179 fps=456 q=-0.0 size=N/A time=00:14:43.34 bitrate=N/A speed=  19x    frame=21427 fps=456 q=-0.0 size=N/A time=00:14:53.68 bitrate=N/A speed=  19x    frame=21655 fps=456 q=-0.0 size=N/A time=00:15:03.19 bitrate=N/A speed=  19x    frame=21917 fps=457 q=-0.0 size=N/A time=00:15:14.12 bitrate=N/A speed=19.1x    frame=22157 fps=457 q=-0.0 size=N/A time=00:15:24.13 bitrate=N/A speed=19.1x    frame=22415 fps=457 q=-0.0 size=N/A time=00:15:34.89 bitrate=N/A speed=19.1x    frame=22645 fps=457 q=-0.0 size=N/A time=00:15:44.48 bitrate=N/A speed=19.1x    frame=22890 fps=457 q=-0.0 size=N/A time=00:15:54.70 bitrate=N/A speed=19.1x    frame=23119 fps=457 q=-0.0 size=N/A time=00:16:04.25 bitrate=N/A speed=19.1x    frame=23345 fps=457 q=-0.0 size=N/A time=00:16:13.68 bitrate=N/A speed=19.1x    frame=23584 fps=457 q=-0.0 size=N/A time=00:16:23.64 bitrate=N/A speed=19.1x    frame=23819 fps=457 q=-0.0 size=N/A time=00:16:33.45 bitrate=N/A speed=19.1x    frame=24060 fps=457 q=-0.0 size=N/A time=00:16:43.50 bitrate=N/A speed=19.1x    frame=24309 fps=458 q=-0.0 size=N/A time=00:16:53.88 bitrate=N/A speed=19.1x    frame=24560 fps=458 q=-0.0 size=N/A time=00:17:04.35 bitrate=N/A speed=19.1x    frame=24797 fps=458 q=-0.0 size=N/A time=00:17:14.24 bitrate=N/A speed=19.1x    frame=25054 fps=458 q=-0.0 size=N/A time=00:17:24.96 bitrate=N/A speed=19.1x    frame=25314 fps=459 q=-0.0 size=N/A time=00:17:35.80 bitrate=N/A speed=19.1x    frame=25573 fps=459 q=-0.0 size=N/A time=00:17:46.60 bitrate=N/A speed=19.1x    frame=25820 fps=459 q=-0.0 size=N/A time=00:17:56.90 bitrate=N/A speed=19.2x    frame=26081 fps=460 q=-0.0 size=N/A time=00:18:07.79 bitrate=N/A speed=19.2x    frame=26324 fps=460 q=-0.0 size=N/A time=00:18:17.93 bitrate=N/A speed=19.2x    frame=26577 fps=460 q=-0.0 size=N/A time=00:18:28.48 bitrate=N/A speed=19.2x    frame=26836 fps=460 q=-0.0 size=N/A time=00:18:39.28 bitrate=N/A speed=19.2x    frame=27065 fps=460 q=-0.0 size=N/A time=00:18:48.83 bitrate=N/A speed=19.2x    frame=27317 fps=460 q=-0.0 size=N/A time=00:18:59.34 bitrate=N/A speed=19.2x    frame=27540 fps=460 q=-0.0 size=N/A time=00:19:08.64 bitrate=N/A speed=19.2x    frame=27786 fps=460 q=-0.0 size=N/A time=00:19:18.90 bitrate=N/A speed=19.2x    frame=28030 fps=461 q=-0.0 size=N/A time=00:19:29.08 bitrate=N/A speed=19.2x    frame=28275 fps=461 q=-0.0 size=N/A time=00:19:39.30 bitrate=N/A speed=19.2x    frame=28520 fps=461 q=-0.0 size=N/A time=00:19:49.52 bitrate=N/A speed=19.2x    frame=28766 fps=461 q=-0.0 size=N/A time=00:19:59.78 bitrate=N/A speed=19.2x    frame=29012 fps=461 q=-0.0 size=N/A time=00:20:10.04 bitrate=N/A speed=19.2x    frame=29244 fps=461 q=-0.0 size=N/A time=00:20:19.71 bitrate=N/A speed=19.2x    frame=29498 fps=461 q=-0.0 size=N/A time=00:20:30.31 bitrate=N/A speed=19.2x    frame=29763 fps=462 q=-0.0 size=N/A time=00:20:41.36 bitrate=N/A speed=19.3x    frame=29973 fps=461 q=-0.0 size=N/A time=00:20:50.12 bitrate=N/A speed=19.2x    frame=30226 fps=461 q=-0.0 size=N/A time=00:21:00.67 bitrate=N/A speed=19.2x    frame=30505 fps=462 q=-0.0 size=N/A time=00:21:12.31 bitrate=N/A speed=19.3x    frame=30711 fps=461 q=-0.0 size=N/A time=00:21:20.90 bitrate=N/A speed=19.2x    frame=30915 fps=461 q=-0.0 size=N/A time=00:21:29.41 bitrate=N/A speed=19.2x    frame=31146 fps=461 q=-0.0 size=N/A time=00:21:39.04 bitrate=N/A speed=19.2x    frame=31338 fps=460 q=-0.0 size=N/A time=00:21:47.05 bitrate=N/A speed=19.2x    frame=31563 fps=460 q=-0.0 size=N/A time=00:21:56.44 bitrate=N/A speed=19.2x    frame=31772 fps=460 q=-0.0 size=N/A time=00:22:05.15 bitrate=N/A speed=19.2x    frame=31993 fps=459 q=-0.0 size=N/A time=00:22:14.37 bitrate=N/A speed=19.2x    frame=32218 fps=459 q=-0.0 size=N/A time=00:22:23.75 bitrate=N/A speed=19.2x    frame=32423 fps=459 q=-0.0 size=N/A time=00:22:32.30 bitrate=N/A speed=19.1x    frame=32582 fps=458 q=-0.0 size=N/A time=00:22:38.94 bitrate=N/A speed=19.1x    frame=32740 fps=457 q=-0.0 size=N/A time=00:22:45.53 bitrate=N/A speed=  19x    frame=32882 fps=455 q=-0.0 size=N/A time=00:22:51.45 bitrate=N/A speed=  19x    frame=33037 fps=454 q=-0.0 size=N/A time=00:22:57.91 bitrate=N/A speed=18.9x    frame=33262 fps=454 q=-0.0 size=N/A time=00:23:07.30 bitrate=N/A speed=18.9x    frame=33414 fps=453 q=-0.0 size=N/A time=00:23:13.64 bitrate=N/A speed=18.9x    frame=33594 fps=452 q=-0.0 size=N/A time=00:23:21.14 bitrate=N/A speed=18.9x    frame=33803 fps=452 q=-0.0 size=N/A time=00:23:29.86 bitrate=N/A speed=18.8x    frame=34002 fps=451 q=-0.0 size=N/A time=00:23:38.16 bitrate=N/A speed=18.8x    frame=34166 fps=450 q=-0.0 size=N/A time=00:23:45.00 bitrate=N/A speed=18.8x    frame=34312 fps=449 q=-0.0 size=N/A time=00:23:51.09 bitrate=N/A speed=18.7x    frame=34468 fps=448 q=-0.0 size=N/A time=00:23:57.60 bitrate=N/A speed=18.7x    frame=34620 fps=447 q=-0.0 size=N/A time=00:24:03.94 bitrate=N/A speed=18.7x    frame=34774 fps=446 q=-0.0 size=N/A time=00:24:10.36 bitrate=N/A speed=18.6x    [Parsed_ssim_10 @ 00000237f998a100] SSIM Y:0.994032 (22.241575) U:0.993114 (21.620577) V:0.993252 (21.708398) All:0.993749 (22.040490)
[out#0/null @ 00000237ecd067c0] video:14975KiB audio:272564KiB subtitle:0KiB other streams:0KiB global headers:0KiB muxing overhead: unknown
frame=34850 fps=445 q=-0.0 Lsize=N/A time=00:24:13.53 bitrate=N/A speed=18.6x    
